# AST/ASF file generated using VICON BodyLanguage
# -----------------------------------------------
:version 1.10
:name VICON
:units
  mass 1.0
  length 0.45
  angle deg
:documentation
   .ast/.asf automatically generated from VICON data using
   VICON BodyBuilder and BodyLanguage model FoxedUp or BRILLIANT.MOD
:root
   order TX TY TZ RX RY RZ
   axis XYZ
   position 0 0 0  
   orientation 0 0 0 
:bonedata
  begin
     id 1 
     name lhipjoint
     direction 0.558404 -0.748506 0.357664 
     length 2.4234 
     axis 0 0 0  XYZ
  end
  begin
     id 2 
     name lfemur
     direction 0.34202 -0.939693 0  
     length 7.14567  
     axis 0 0 20  XYZ
    dof rx ry rz
    limits (-160.0 20.0)
           (-70.0 70.0)
           (-60.0 70.0)
  end
  begin
     id 3 
     name ltibia
     direction 0.34202 -0.939693 0   
     length 8.13956   
     axis 0 0 20   XYZ
    dof rx
    limits (-10.0 170.0)
  end
  begin
     id 4 
     name lfoot
     direction 0.0791314 -0.217412 0.972867   
     length 2.00134   
     axis -90 7.62852e-016 20   XYZ
    dof rx rz
    limits (-45.0 90.0)
           (-70.0 20.0)
  end
  begin
     id 5 
     name ltoes
     direction 1.53547e-011 -4.21922e-011 1   
     length 1.00735   
     axis -90 7.62852e-016 20   XYZ
    dof rx
    limits (-90.0 20.0)
  end
  begin
     id 6 
     name rhipjoint
     direction -0.496392 -0.78327 0.374276   
     length 2.31584  
     axis 0 0 0  XYZ 
  end
  begin
     id 7 
     name rfemur
     direction -0.34202 -0.939693 0   
     length 7.47417   
     axis 0 0 -20   XYZ
    dof rx ry rz
    limits (-160.0 20.0)
           (-70.0 70.0)
           (-70.0 60.0)
  end
  begin
     id 8 
     name rtibia
     direction -0.34202 -0.939693 0   
     length 7.69071   
     axis 0 0 -20   XYZ
    dof rx
    limits (-10.0 170.0)
 end
 begin
     id 9 
     name rfoot
     direction -0.103069 -0.28318 0.953512   
     length 2.16135  
     axis -90 -7.62852e-016 -20   XYZ
    dof rx rz
    limits (-45.0 90.0)
           (-20.0 70.0)
  end
  begin
     id 10 
     name rtoes
     direction -1.53581e-011 -4.21904e-011 1   
     length 1.07867   
     axis -90 -7.62852e-016 -20   XYZ
    dof rx
    limits (-90.0 20.0)
  end
  begin
     id 11 
     name lowerback
     direction -0.0258961 0.994776 -0.0987407   
     length 2.19412   
     axis 0 0 0   XYZ
    dof rx ry rz
    limits (-20.0 45.0)
           (-30.0 30.0)
           (-30.0 30.0)
  end
  begin
     id 12 
     name upperback
     direction 0.0402454 0.999185 0.00320666   
     length 2.18445   
     axis 0 0 0   XYZ
    dof rx ry rz
    limits (-20.0 45.0)
           (-30.0 30.0)
           (-30.0 30.0)
  end
  begin
     id 13 
     name thorax
     direction 0.0519376 0.997415 0.0496558   
     length 2.21487   
     axis 0 0 0   XYZ
    dof rx ry rz
    limits (-20.0 45.0)
           (-30.0 30.0)
           (-30.0 30.0)
  end
  begin
     id 14 
     name lowerneck
     direction -0.0921276 0.983211 0.157506   
     length 1.61201   
     axis 0 0 0   XYZ
    dof rx ry rz
    limits (-20.0 45.0)
           (-30.0 30.0)
           (-30.0 30.0)
  end
  begin
     id 15 
     name upperneck
     direction 0.0820814 0.98162 -0.172292   
     length 1.65275   
     axis 0 0 0   XYZ
    dof rx ry rz
    limits (-20.0 45.0)
           (-30.0 30.0)
           (-30.0 30.0)
  end
  begin
     id 16
     name head
     direction 0.0336554 0.996413 -0.0776455  
     length 1.66415  
     axis 0 0 0   XYZ
    dof rx ry rz
    limits (-20.0 45.0)
           (-30.0 30.0)
           (-30.0 30.0)
  end
  begin
     id 17 
     name lclavicle
     direction 0.94696 0.284418 -0.149576  
     length 3.41447  
     axis 0 0 0   XYZ
    dof ry rz
    limits (-20.0 10.0)
           (0.0 20.0)
  end
  begin
     id 18 
     name lhumerus
     direction 1 -0.000130264 -9.81312e-005   
     length 5.19964   
     axis 180 -30 -90   XYZ
    dof rx ry rz
    limits (-60.0 90.0)
           (-90.0 90.0)
           (-90.0 90.0)
  end
  begin
     id 19
     name lradius
     direction 1 -4.48961e-011 1.43854e-026   
     length 3.32189   
     axis 180 -30 -90   XYZ
    dof rx
    limits (-10.0 170.0)
  end
  begin
     id 20
     name lwrist
     direction 1 -4.48958e-011 3.1502e-026   
     length 1.66095   
     axis -1.97692e-014 90 90   XYZ
    dof ry
    limits (-180.0 0.0)
 end
  begin
     id 21 
     name lhand
     direction 1 -4.48927e-011 6.3004e-026   
     length 0.645616   
     axis -4.02019e-014 90 90   XYZ
    dof rx rz
    limits (-90.0 90.0)
           (-45.0 45.0)
  end
  begin
     id 22 
     name lfingers
     direction 1 -4.4904e-011 1.26008e-025   
     length 0.520512   
     axis -8.04039e-014 90 90   XYZ
    dof rx
    limits (0.0 90.0)
  end
  begin
     id 23
     name lthumb
     direction 0.707107 -6.34947e-011 0.707107   
     length 0.747354   
     axis -90 45 2.85299e-015   XYZ
    dof rx rz
    limits (-45.0 45.0)
           (-45.0 45.0)
  end
  begin
     id 24 
     name rclavicle
     direction -0.909391 0.383475 -0.161107   
     length 3.25176  
     axis 0 0 0   XYZ 
    dof ry rz
    limits (-10.0 20.0)
           (-20.0 0.0)
  end
  begin
     id 25 
     name rhumerus
     direction -1 -4.48965e-011 -1.81384e-027  
     length 5.6595   
     axis 180 30 90   XYZ
    dof rx ry rz
    limits (-90.0 60.0)
           (-90.0 90.0)
           (-90.0 90.0)
  end
  begin
     id 26 
     name rradius
     direction -1 -4.48996e-011 -8.09397e-027   
     length 3.37604   
     axis 180 30 90   XYZ
    dof rx
    limits (-10.0 170.0)
  end
  begin
     id 27 
     name rwrist
     direction -1 -4.48927e-011 -1.56669e-026   
     length 1.68802   
     axis 1.21142e-014 -90 -90   XYZ
    dof ry
    limits (-180.0 0.0)
  end
  begin
     id 28
     name rhand
     direction -1 -4.48912e-011 -3.13339e-026   
     length 0.824702   
     axis 1.99937e-014 -90 -90   XYZ
    dof rx rz
    limits (-90.0 90.0)
           (-45.0 45.0)
  end
  begin
     id 29
     name rfingers
     direction -1 -4.49011e-011 -6.26677e-026   
     length 0.664896   
     axis 3.99874e-014 -90 -90   XYZ
    dof rx
    limits (0.0 90.0)
  end
  begin
     id 30
     name rthumb
     direction -0.707107 -6.34931e-011 0.707107   
     length 0.954662   
     axis -90 -45 -2.85299e-015   XYZ
    dof rx rz
    limits (-45.0 45.0)
           (-45.0 45.0)
  end
:hierarchy
  begin
    root lhipjoint rhipjoint lowerback
    lhipjoint lfemur
    lfemur ltibia
    ltibia lfoot
    lfoot ltoes
    rhipjoint rfemur
    rfemur rtibia
    rtibia rfoot
    rfoot rtoes
    lowerback upperback
    upperback thorax
    thorax lowerneck lclavicle rclavicle
    lowerneck upperneck
    upperneck head
    lclavicle lhumerus
    lhumerus lradius
    lradius lwrist
    lwrist lhand lthumb
    lhand lfingers
    rclavicle rhumerus
    rhumerus rradius
    rradius rwrist
    rwrist rhand rthumb
    rhand rfingers
  end

#!OML:ASF F:\VICON\USERDATA\INSTALL\rory3\rory3.ASF
:FULLY-SPECIFIED
:DEGREES
281
root 3.36549 15.9596 -4.3866 12.772 -24.9388 -22.1163
lowerback 8.33842 2.03062 7.05024
upperback 1.18665 3.65546 11.8568
thorax -3.8159 1.7404 8.25056
lowerneck -3.4672 -10.1027 -15.3413
upperneck 28.4043 -16.2421 12.3196
head 12.2359 -7.8957 5.13217
rclavicle -2.04748e-014 -1.46306e-013
rhumerus -23.0743 -2.74333 -54.6024
rradius 72.5696
rwrist -13.0318
rhand -21.0364 25.9502
rfingers 7.12502
rthumb 5.33916 -3.96253
lclavicle -2.04748e-014 -1.46306e-013
lhumerus -48.6708 16.9665 14.0864
lradius 41.8882
lwrist 5.84277
lhand -15.8942 37.9877
lfingers 7.12502
lthumb 10.3023 67.7154
rfemur 24.2887 9.92075 16.5013
rtibia 50.6803
rfoot 13.383 -7.92801
rtoes 25.7519
lfemur -54.3257 5.10298 -6.44262
ltibia 34.4955
lfoot -9.05971 3.86448
ltoes -5.33152
282
root 3.27724 15.8107 -3.9511 11.84 -25.3873 -22.1451
lowerback 8.27307 2.06696 7.00404
upperback 1.39402 3.65898 11.9066
thorax -3.56448 1.74368 8.33386
lowerneck -3.18035 -10.0639 -15.0577
upperneck 28.3131 -16.1699 12.0426
head 12.07 -7.87606 5.00428
rclavicle 5.00937e-014 5.56597e-014
rhumerus -24.2802 -4.06078 -54.0631
rradius 71.525
rwrist -13.347
rhand -21.0211 25.632
rfingers 7.12502
rthumb 5.35402 -4.28035
lclavicle 5.00937e-014 5.56597e-014
lhumerus -48.7611 17.4668 13.6209
lradius 42.6546
lwrist 5.74654
lhand -17.9254 39.9204
lfingers 7.12502
lthumb 8.34236 69.7357
rfemur 23.6004 10.7026 15.3272
rtibia 54.2964
rfoot 12.4625 -8.23497
rtoes 24.6578
lfemur -53.607 6.24169 -7.36636
ltibia 35.8956
lfoot -8.25066 2.70151
ltoes -15.4832
283
root 3.19566 15.6516 -3.52121 10.8012 -25.7745 -22.1663
lowerback 8.3837 1.95246 6.93008
upperback 1.59787 3.48493 12.0638
thorax -3.40787 1.65663 8.57365
lowerneck -3.28414 -10.0253 -15.0515
upperneck 28.6778 -16.0253 11.5806
head 12.1676 -7.85043 4.84938
rclavicle 7.35503e-015 -8.26944e-014
rhumerus -25.474 -4.75057 -53.4685
rradius 70.7379
rwrist -13.9452
rhand -21.0693 25.2246
rfingers 7.12502
rthumb 5.30748 -4.68893
lclavicle 7.35503e-015 -8.26944e-014
lhumerus -49.2968 18.038 13.2771
lradius 43.5674
lwrist 6.32552
lhand -19.5832 41.1073
lfingers 7.12502
lthumb 6.74218 70.98
rfemur 22.7246 11.3166 14.0308
rtibia 57.8846
rfoot 11.6503 -9.38887
rtoes 26.5956
lfemur -53.5134 8.27819 -9.13391
ltibia 38.2564
lfoot -0.994456 5.01734
ltoes 8.13498
284
root 3.14758 15.562 -3.0903 9.62443 -25.9204 -21.94
lowerback 8.9353 1.8584 6.87483
upperback 1.26129 3.49268 12.2406
thorax -4.09607 1.66189 8.79973
lowerneck -2.46103 -10.0357 -15.8264
upperneck 29.4296 -16.1069 11.2941
head 12.3769 -8.03683 4.90678
rclavicle -3.03147e-014 -3.02153e-014
rhumerus -27.6268 -5.40312 -52.2623
rradius 69.8413
rwrist -14.0108
rhand -20.646 25.1534
rfingers 7.12502
rthumb 5.71615 -4.74948
lclavicle -3.03147e-014 -3.02153e-014
lhumerus -49.7974 17.5657 13.7481
lradius 44.7899
lwrist 7.42073
lhand -20.3749 39.6262
lfingers 7.12502
lthumb 5.97787 69.5219
rfemur 21.5102 11.5365 12.4097
rtibia 61.2776
rfoot 10.7114 -10.8087
rtoes 27.8055
lfemur -54.4929 10.3487 -11.2156
ltibia 41.8894
lfoot 12.2125 2.15736
ltoes 13.8945
285
root 3.10593 15.4347 -2.71501 8.23089 -25.6015 -21.6832
lowerback 10.2175 1.55447 6.78032
upperback 0.841598 3.33941 12.4193
thorax -5.27633 1.58831 9.07927
lowerneck -1.46676 -9.89329 -16.1616
upperneck 29.8768 -15.9473 10.8159
head 12.3214 -8.09831 4.86241
rclavicle 8.06072e-014 -5.88403e-014
rhumerus -29.4064 -6.58549 -51.2032
rradius 68.3079
rwrist -13.2661
rhand -20.4438 25.2756
rfingers 7.12502
rthumb 5.91138 -4.62198
lclavicle 8.06072e-014 -5.88403e-014
lhumerus -50.3623 17.2913 14.3231
lradius 46.0188
lwrist 8.59764
lhand -21.313 39.7714
lfingers 7.12502
lthumb 5.07215 69.6906
rfemur 20.069 11.3684 10.9843
rtibia 64.8808
rfoot 9.57446 -12.7179
rtoes 28.9507
lfemur -55.4382 11.8906 -13.1955
ltibia 46.2208
lfoot 11.852 -2.55168
ltoes 32.373
286
root 3.06323 15.2825 -2.38326 6.40811 -24.6681 -20.5378
lowerback 11.5234 0.996952 5.90559
upperback 0.868985 2.67152 12.2984
thorax -5.94577 1.28067 9.56571
lowerneck -1.86817 -9.83863 -15.6759
upperneck 30.3782 -15.7423 10.1668
head 12.4621 -8.00296 4.55157
rclavicle 2.98177e-015 -1.11319e-014
rhumerus -30.1057 -8.56196 -50.7755
rradius 66.5292
rwrist -12.0718
rhand -20.4961 25.406
rfingers 7.12502
rthumb 5.86083 -4.49294
lclavicle 2.98177e-015 -1.11319e-014
lhumerus -50.7351 18.8699 14.4127
lradius 46.8638
lwrist 8.78703
lhand -21.9219 41.1885
lfingers 7.12502
lthumb 4.48419 71.121
rfemur 18.4216 10.5971 8.70383
rtibia 68.5843
rfoot 9.53995 -15.0543
rtoes 34.5001
lfemur -55.9214 11.2498 -14.9005
ltibia 50.8558
lfoot 9.8849 -5.19613
ltoes 35.0483
